<svg xmlns="http://www.w3.org/2000/svg" fill="none" viewBox="0.19 0.5 62.61 62.49">
    <path d="M62.8039 0.502441L0.194824 0.502487L0.195408 62.9956H62.8039V0.502441ZM40.6813 11.7216C44.458 11.7216 47.5209 14.9832 47.5209 19.0044C47.5209 23.0256 44.4578 26.2871 40.6813 26.2871C36.9036 26.2871 33.8418 23.0256 33.8418 19.0044C33.8418 14.9832 36.9036 11.7216 40.6813 11.7216ZM53.5055 56.0257H10.473C8.58401 56.0257 7.74274 54.5704 8.59428 52.775L20.3322 28.0194C21.1827 26.2242 22.8036 26.064 23.9515 27.6612L35.7544 44.0852C36.9023 45.6826 38.9086 45.8186 40.2366 44.3874L43.124 41.274C44.4509 39.8429 46.4059 40.0201 47.4888 41.6672L54.9657 53.0395C56.0465 54.6891 55.3945 56.0257 53.5055 56.0257Z" fill="#F5F5F5"/>
</svg>