<svg width="19" height="18" viewBox="0 0 19 18" fill="none" xmlns="http://www.w3.org/2000/svg">
<path fill-rule="evenodd" clip-rule="evenodd" d="M7.83333 15.75H11.1667C13.5074 15.75 14.6778 15.75 15.5186 15.1984C15.8825 14.9597 16.195 14.6529 16.4382 14.2955C17 13.47 17 12.3209 17 10.0227C17 7.72452 17 6.57541 16.4382 5.74995C16.195 5.3926 15.8825 5.08578 15.5186 4.84701C14.9783 4.4926 14.302 4.36592 13.2665 4.32064C12.7724 4.32064 12.3469 3.95301 12.25 3.47727C12.1046 2.76367 11.4665 2.25 10.7252 2.25H8.27475C7.53354 2.25 6.89536 2.76367 6.75 3.47727C6.65309 3.95301 6.22764 4.32064 5.7335 4.32064C4.698 4.36592 4.02166 4.4926 3.48143 4.84701C3.11747 5.08578 2.80496 5.3926 2.56177 5.74995C2 6.57541 2 7.72452 2 10.0227C2 12.3209 2 13.47 2.56177 14.2955C2.80496 14.6529 3.11747 14.9597 3.48143 15.1984C4.32218 15.75 5.49256 15.75 7.83333 15.75ZM9.5 6.95455C7.77411 6.95455 6.375 8.32822 6.375 10.0227C6.375 11.7172 7.77411 13.0909 9.5 13.0909C11.2259 13.0909 12.625 11.7172 12.625 10.0227C12.625 8.32822 11.2259 6.95455 9.5 6.95455ZM9.5 8.18182C8.46447 8.18182 7.625 9.00602 7.625 10.0227C7.625 11.0394 8.46447 11.8636 9.5 11.8636C10.5355 11.8636 11.375 11.0394 11.375 10.0227C11.375 9.00602 10.5355 8.18182 9.5 8.18182ZM13.0417 7.56818C13.0417 7.22928 13.3215 6.95455 13.6667 6.95455H14.5C14.8452 6.95455 15.125 7.22928 15.125 7.56818C15.125 7.90708 14.8452 8.18182 14.5 8.18182H13.6667C13.3215 8.18182 13.0417 7.90708 13.0417 7.56818Z" fill="#121410"/>
</svg>
