<svg width="18" height="18" viewBox="0 0 18 18" fill="none" xmlns="http://www.w3.org/2000/svg">
    <path d="M15.3049 6.20434C15.148 5.93624 14.8034 5.84612 14.5353 6.00305C14.2672 6.15999 14.1771 6.50455 14.334 6.77266L15.3049 6.20434ZM14.8195 11.5115L14.334 11.2273L14.8195 11.5115ZM6.62348 14.0832C6.32973 13.9821 6.00964 14.1382 5.90853 14.432C5.80742 14.7257 5.96359 15.0458 6.25733 15.1469L6.62348 14.0832ZM2.68055 11.5115L3.166 11.2273L2.68055 11.5115ZM2.68055 6.4885L3.166 6.77266L2.68055 6.4885ZM10.1872 7.47624C10.412 7.69064 10.768 7.6822 10.9824 7.45738C11.1968 7.23257 11.1884 6.87652 10.9636 6.66211L10.1872 7.47624ZM6.3074 11.1868C6.50926 11.4229 6.86433 11.4507 7.10047 11.2488C7.33661 11.047 7.3644 10.6919 7.16255 10.4558L6.3074 11.1868ZM11.98 9.04553C11.98 8.73487 11.7282 8.48303 11.4175 8.48303C11.1069 8.48303 10.855 8.73487 10.855 9.04553H11.98ZM8.74958 11.1925C8.43892 11.1925 8.18708 11.4443 8.18708 11.755C8.18708 12.0656 8.43892 12.3175 8.74958 12.3175V11.1925ZM15.0571 3.3946C15.2751 3.17321 15.2722 2.81707 15.0509 2.59913C14.8295 2.3812 14.4733 2.384 14.2554 2.6054L15.0571 3.3946ZM2.86476 14.1768C2.64682 14.3982 2.64963 14.7544 2.87102 14.9723C3.09241 15.1902 3.44856 15.1874 3.66649 14.966L2.86476 14.1768ZM14.334 6.77266C15.1387 8.14733 15.1387 9.85267 14.334 11.2273L15.3049 11.7957C16.315 10.07 16.315 7.93003 15.3049 6.20434L14.334 6.77266ZM14.334 11.2273C12.6663 14.0764 9.38027 15.0321 6.62348 14.0832L6.25733 15.1469C9.48077 16.2564 13.3455 15.143 15.3049 11.7957L14.334 11.2273ZM3.166 11.2273C2.36133 9.85267 2.36133 8.14733 3.166 6.77266L2.1951 6.20434C1.18497 7.93003 1.18497 10.07 2.1951 11.7957L3.166 11.2273ZM4.58941 12.9291C4.04551 12.4693 3.56136 11.9028 3.166 11.2273L2.1951 11.7957C2.65486 12.5811 3.2217 13.246 3.86311 13.7883L4.58941 12.9291ZM3.166 6.77266C5.20118 3.2958 9.65126 2.63997 12.5924 4.81895L13.2621 3.915C9.813 1.3597 4.58692 2.11822 2.1951 6.20434L3.166 6.77266ZM6.64499 9.04553C6.64499 7.85026 7.59549 6.89774 8.74958 6.89774V5.77274C6.9573 5.77274 5.51999 7.24594 5.51999 9.04553H6.64499ZM8.74958 6.89774C9.30444 6.89774 9.80944 7.11601 10.1872 7.47624L10.9636 6.66211C10.3867 6.11194 9.60719 5.77274 8.74958 5.77274V6.89774ZM7.16255 10.4558C6.84051 10.079 6.64499 9.58685 6.64499 9.04553H5.51999C5.51999 9.86289 5.81648 10.6125 6.3074 11.1868L7.16255 10.4558ZM10.855 9.04553C10.855 10.2396 9.90402 11.1925 8.74958 11.1925V12.3175C10.5415 12.3175 11.98 10.8446 11.98 9.04553H10.855ZM14.2554 2.6054L2.86476 14.1768L3.66649 14.966L15.0571 3.3946L14.2554 2.6054Z" fill="#363853"/>
</svg>
